<?xml version="1.0" encoding="utf-8"?>
<!-- Generator: Adobe Illustrator 27.4.1, SVG Export Plug-In . SVG Version: 6.00 Build 0)  -->
<svg version="1.1" id="Слой_1" xmlns="http://www.w3.org/2000/svg" xmlns:xlink="http://www.w3.org/1999/xlink" x="0px" y="0px"
	 viewBox="0 0 500 500" style="enable-background:new 0 0 500 500;" xml:space="preserve">
<style type="text/css">
	.st0{fill:#FFFFFF;stroke:#000000;stroke-miterlimit:10;}
</style>
<g id="network-100">
	<path id="Shape" class="st0" d="M305,137.8c22.1,0,40,16.4,40,36.7v263.8c0,20.3-17.9,36.7-40,36.7s-40-16.4-40-36.7V174.5
		C265,154.3,282.9,137.8,305,137.8z M85,361.7c22.1,0,40,16.4,40,36.7v39.4c0,20.3-17.9,36.7-40,36.7s-40-16.4-40-36.7v-39.4
		C45,378.1,62.9,361.7,85,361.7z M195,249.8c22.1,0,40,16.4,40,36.7v151.4c0,20.3-17.9,36.7-40,36.7s-40-16.4-40-36.7V286.5
		C155,266.2,172.9,249.8,195,249.8z M415,25c22.1,0,40,16.4,40,36.7v376.1c0,20.3-17.9,36.7-40,36.7s-40-16.4-40-36.7V61.7
		C375,41.4,392.9,25,415,25z"/>
</g>
</svg>
