<?xml version="1.0" encoding="utf-8"?>
<!-- Generator: Adobe Illustrator 27.4.1, SVG Export Plug-In . SVG Version: 6.00 Build 0)  -->
<svg version="1.1" id="Capa_1" xmlns="http://www.w3.org/2000/svg" xmlns:xlink="http://www.w3.org/1999/xlink" x="0px" y="0px"
	 viewBox="0 0 612 612" style="enable-background:new 0 0 612 612;" xml:space="preserve">
<style type="text/css">
	.st0{fill:#FFFFFF;stroke:#000000;stroke-miterlimit:10;}
</style>
<g>
	<g id="Wi-Fi">
		<g>
			<path class="st0" d="M306,417.8c-30.9,0-55.9,25-55.9,55.9s25,55.9,55.9,55.9s55.9-25,55.9-55.9S336.8,417.8,306,417.8z
				 M605.4,222.4C530.7,133.4,421.5,82.4,306,82.4S81.3,133.4,6.6,222.4c-9.9,11.8-8.4,29.4,3.4,39.4c5.2,4.4,11.6,6.6,17.9,6.6
				c8,0,15.9-3.4,21.4-10c64.1-76.2,157.6-120,256.7-120s192.6,43.7,256.7,120c5.5,6.6,13.5,10,21.4,10c6.4,0,12.7-2.1,18-6.6
				C613.8,251.8,615.4,234.2,605.4,222.4z M306,194.2c-82.5,0-160.5,36.4-213.9,99.9c-9.9,11.8-8.4,29.4,3.4,39.4
				c5.2,4.4,11.6,6.6,18,6.6c8,0,15.9-3.4,21.4-10c42.7-50.8,105.1-80,171.1-80s128.4,29.2,171.1,80c5.5,6.6,13.5,10,21.4,10
				c6.4,0,12.7-2.1,18-6.6c11.8-9.9,13.4-27.6,3.4-39.4C466.5,230.6,388.5,194.2,306,194.2z M306,306c-49.6,0-96.3,21.9-128.3,59.9
				c-9.9,11.8-8.4,29.4,3.4,39.4c5.2,4.4,11.6,6.6,18,6.6c8,0,15.9-3.4,21.4-10c21.4-25.4,52.6-40,85.5-40s64.2,14.6,85.5,40
				c5.5,6.6,13.5,10,21.4,10c6.4,0,12.7-2.1,18-6.6c11.8-9.9,13.4-27.6,3.4-39.4C402.3,327.8,355.5,306,306,306z"/>
		</g>
	</g>
</g>
</svg>
